<?xml version="1.0" encoding="UTF-8" standalone="no"?>
<!DOCTYPE svg PUBLIC "-//W3C//DTD SVG 1.1//EN" "http://www.w3.org/Graphics/SVG/1.1/DTD/svg11.dtd">
<svg width="100%" height="100%" viewBox="0 0 199 199" version="1.1" xmlns="http://www.w3.org/2000/svg" xmlns:xlink="http://www.w3.org/1999/xlink" xml:space="preserve" xmlns:serif="http://www.serif.com/" style="fill-rule:evenodd;clip-rule:evenodd;stroke-linejoin:round;stroke-miterlimit:1.41421;">
    <g id="PLATFORM" transform="matrix(1,0,0,1,-14.2,-14.2)">
        <circle cx="113.4" cy="113.4" r="99.2"/>
        <path d="M44,44L113.4,113.4L182.8,44C144.5,5.6 82.3,5.6 44,44Z" style="fill:url(#_Linear1);fill-rule:nonzero;"/>
    </g>
    <g id="PIMCORE_4_" transform="matrix(1,0,0,1,-14.2,-14.2)">
        <path d="M135.3,104.5L121.2,118.7C118.3,121.6 113.5,121.6 110.6,118.7C107.7,115.8 107.7,111 110.6,108.1C113.5,105.2 118.3,105.2 121.2,108.1L123,109.9L126.5,106.4L124.7,104.6C119.8,99.7 111.9,99.7 107,104.6C102.1,109.5 102.1,117.4 107,122.3C111.9,127.2 119.8,127.2 124.7,122.3L130,117L135.3,122.3C140.2,127.2 148.1,127.2 153,122.3C157.9,117.4 157.9,109.5 153,104.6C148.2,99.6 140.2,99.6 135.3,104.5ZM149.5,118.7C146.6,121.6 141.8,121.6 138.9,118.7L133.6,113.4L138.9,108.1C141.8,105.2 146.6,105.2 149.5,108.1C152.4,111 152.4,115.8 149.5,118.7Z" style="fill:white;fill-rule:nonzero;"/>
        <path d="M90.5,100.9C87.5,100.9 85,102.2 83.1,104.3C81.3,102.2 78.4,100.9 75.4,100.9C69.9,100.9 65.2,105.4 65.2,110.9L65.2,124.2L71.2,124.2L71.2,110.9C71.2,108.1 73.4,105.9 76.2,105.9C79,105.9 81.2,108.1 81.2,110.9L81.2,124.2L86.2,124.2L86.2,110.9C86.2,108.1 88.4,105.9 91.2,105.9C94,105.9 96.2,108.1 96.2,110.9L96.2,124.2L100.2,124.2L100.2,110.9C100.2,105.3 96,100.9 90.5,100.9Z" style="fill:white;fill-rule:nonzero;"/>
        <path d="M159.2,110.9L159.2,124.2L163.2,124.2L163.2,110.9C163.2,108.1 166.2,105.9 169.2,105.9L169.2,100.9C163.2,100.9 159.2,105.3 159.2,110.9Z" style="fill:white;fill-rule:nonzero;"/>
        <path d="M183.5,100.9C180.3,100.9 177.1,102.1 174.6,104.6C169.7,109.5 169.7,117.4 174.6,122.3C179.5,127.2 187.4,127.2 192.3,122.3L188.8,118.8C185.9,121.7 181.1,121.9 178.2,118.9C177.4,118.1 176.8,116.2 176.4,116.2L195.8,116.2C196,115.2 196.1,114.4 196.1,113.6C196.1,106.6 190.4,100.9 183.5,100.9ZM176.5,111.2C176.9,110.2 177.4,109.1 178.3,108.2C179.8,106.7 181.7,106.1 183.6,106.1C186.9,106.1 189.6,108.2 190.7,111.2L176.5,111.2Z" style="fill:white;fill-rule:nonzero;"/>
        <rect x="58.2" y="102.2" width="5" height="22" style="fill:white;"/>
        <rect x="58.2" y="93.2" width="5" height="6" style="fill:white;"/>
        <path d="M43.2,100.9C36.3,100.9 30.4,106.6 30.4,113.5C30.4,113.7 30.1,113.4 30.1,114.1L30.1,114.2L30.9,133.3L36.1,133.3L36.1,123.5C37.1,125.1 40.6,126 43.4,126C50.3,126 55.8,120.4 55.8,113.5C55.9,106.5 50.2,100.9 43.2,100.9ZM43.2,120.9C39,120.9 35.7,117.5 35.7,113.4C35.7,109.2 39.1,105.9 43.2,105.9C47.3,105.9 50.7,109.3 50.7,113.4C50.8,117.5 47.4,120.9 43.2,120.9Z" style="fill:white;fill-rule:nonzero;"/>
    </g>
    <defs>
        <linearGradient id="_Linear1" x1="0" y1="0" x2="1" y2="0" gradientUnits="userSpaceOnUse" gradientTransform="matrix(-69.4231,69.4232,-69.4232,-69.4231,148.095,9.2487)"><stop offset="0" style="stop-color:rgb(60,60,59);stop-opacity:1"/><stop offset="1" style="stop-color:black;stop-opacity:1"/></linearGradient>
    </defs>
</svg>
