<?xml version="1.0" encoding="utf-8"?>
<!-- Generator: Adobe Illustrator 19.2.1, SVG Export Plug-In . SVG Version: 6.00 Build 0)  -->
<svg version="1.1" id="Ebene_1" xmlns="http://www.w3.org/2000/svg" xmlns:xlink="http://www.w3.org/1999/xlink" x="0px" y="0px"
	 xml:space="preserve">
<g id="PLATFORM">
	<g>
		<circle cx="113.4" cy="113.4" r="99.2"/>
		<linearGradient id="SVGID_1_" gradientUnits="userSpaceOnUse" x1="148.095" y1="9.2487" x2="78.6719" y2="78.6719">
			<stop  offset="0" style="stop-color:#3C3C3B"/>
			<stop  offset="1" style="stop-color:#000000"/>
		</linearGradient>
		<path fill="url(#SVGID_1_)" d="M44,44l69.4,69.4L182.8,44C144.5,5.6,82.3,5.6,44,44z"/>
	</g>
</g>
<g id="PIMCORE_4_">
	<path fill="#FFFFFF" d="M135.3,104.5l-14.1,14.2c-2.9,2.9-7.7,2.9-10.6,0c-2.9-2.9-2.9-7.7,0-10.6c2.9-2.9,7.7-2.9,10.6,0l1.8,1.8
		l3.5-3.5l-1.8-1.8c-4.9-4.9-12.8-4.9-17.7,0c-4.9,4.9-4.9,12.8,0,17.7c4.9,4.9,12.8,4.9,17.7,0l5.3-5.3l5.3,5.3
		c4.9,4.9,12.8,4.9,17.7,0c4.9-4.9,4.9-12.8,0-17.7C148.2,99.6,140.2,99.6,135.3,104.5z M149.5,118.7c-2.9,2.9-7.7,2.9-10.6,0
		l-5.3-5.3l5.3-5.3c2.9-2.9,7.7-2.9,10.6,0C152.4,111,152.4,115.8,149.5,118.7z"/>
	<path fill="#FFFFFF" d="M90.5,100.9c-3,0-5.5,1.3-7.4,3.4c-1.8-2.1-4.7-3.4-7.7-3.4c-5.5,0-10.2,4.5-10.2,10v13.3h6v-13.3
		c0-2.8,2.2-5,5-5c2.8,0,5,2.2,5,5v13.3h5v-13.3c0-2.8,2.2-5,5-5c2.8,0,5,2.2,5,5v13.3h4v-13.3C100.2,105.3,96,100.9,90.5,100.9z"/>
	<path fill="#FFFFFF" d="M159.2,110.9v13.3h4v-13.3c0-2.8,3-5,6-5v-5C163.2,100.9,159.2,105.3,159.2,110.9z"/>
	<path fill="#FFFFFF" d="M183.5,100.9c-3.2,0-6.4,1.2-8.9,3.7c-4.9,4.9-4.9,12.8,0,17.7c4.9,4.9,12.8,4.9,17.7,0l-3.5-3.5
		c-2.9,2.9-7.7,3.1-10.6,0.1c-0.8-0.8-1.4-2.7-1.8-2.7h14.2h3.1h2.1c0.2-1,0.3-1.8,0.3-2.6C196.1,106.6,190.4,100.9,183.5,100.9z
		 M176.5,111.2c0.4-1,0.9-2.1,1.8-3c1.5-1.5,3.4-2.1,5.3-2.1c3.3,0,6,2.1,7.1,5.1H176.5z"/>
	<rect x="58.2" y="102.2" fill="#FFFFFF" width="5" height="22"/>
	<rect x="58.2" y="93.2" fill="#FFFFFF" width="5" height="6"/>
	<path fill="#FFFFFF" d="M43.2,100.9c-6.9,0-12.8,5.7-12.8,12.6c0,0.2-0.3-0.1-0.3,0.6v0.1l0.8,19.1h5.2v-9.8c1,1.6,4.5,2.5,7.3,2.5
		c6.9,0,12.4-5.6,12.4-12.5C55.9,106.5,50.2,100.9,43.2,100.9z M43.2,120.9c-4.2,0-7.5-3.4-7.5-7.5c0-4.2,3.4-7.5,7.5-7.5
		s7.5,3.4,7.5,7.5C50.8,117.5,47.4,120.9,43.2,120.9z"/>
</g>
</svg>
